<svg xmlns="http://www.w3.org/2000/svg" id="svg40" width="1072.386" viewBox="0 0 804.29 237.398" version="1.1" height="316.53"><defs id="defs4" stroke-linecap="butt" stroke-linejoin="round"><style id="style2" type="text/css">*{stroke-linecap:butt;stroke-linejoin:round}</style></defs><g transform="translate(-117.461 -51.991)" id="figure_1" stroke-linecap="butt" stroke-linejoin="round"><g id="axes_1"><g id="patch_2"><path id="path9" d="M236.16 286.889a116.204 116.204 0 0 0 82.165-34.034 116.204 116.204 0 0 0 34.034-82.165 116.204 116.204 0 0 0-34.034-82.165A116.204 116.204 0 0 0 236.16 54.49a116.204 116.204 0 0 0-82.165 34.034 116.204 116.204 0 0 0-34.034 82.165 116.204 116.204 0 0 0 34.034 82.165 116.204 116.204 0 0 0 82.165 34.034z" clip-path="url(#p9e91403f37)" fill="none" stroke="#999" stroke-width="5" stroke-linecap="butt" stroke-linejoin="miter"/></g><g id="line2d_1"><path id="path12" d="M236.16 170.69v116.199" clip-path="url(#p9e91403f37)" fill="none" stroke="#999" stroke-width="5" stroke-linecap="square" stroke-linejoin="round"/></g><g id="line2d_2"><path id="path15" d="m236.16 170.69 87.449-76.518" clip-path="url(#p9e91403f37)" fill="none" stroke="#999" stroke-width="5" stroke-linecap="square" stroke-linejoin="round"/></g><g id="line2d_3"><path id="path18" d="m236.16 170.69-108.8-40.8" clip-path="url(#p9e91403f37)" fill="none" stroke="#999" stroke-width="5" stroke-linecap="square" stroke-linejoin="round"/></g><g id="line2d_4"><path id="path21" d="M195.22 61.942v163.761" clip-path="url(#p9e91403f37)" fill="none" stroke="#999" stroke-width="5" stroke-linecap="square" stroke-linejoin="round"/></g><g id="line2d_5"><path id="path24" d="m133.81 225.703 115.936-101.445" clip-path="url(#p9e91403f37)" fill="none" stroke="#999" stroke-width="5" stroke-linecap="square" stroke-linejoin="round"/></g><g id="line2d_6"><path id="path27" d="m338.51 225.703-179.464-67.299" clip-path="url(#p9e91403f37)" fill="none" stroke="#999" stroke-width="5" stroke-linecap="square" stroke-linejoin="round"/></g><g id="line2d_7"><path id="path30" d="M133.81 225.703h204.7L195.22 61.943l-61.41 163.76" clip-path="url(#p9e91403f37)" fill="none" stroke="#d62728" stroke-width="5" stroke-linecap="square" stroke-linejoin="round"/></g></g><g id="flowRoot833" style="line-height:0%;-inkscape-font-specification:'Baskerville Bold'" transform="matrix(.75 0 0 .75 117.461 90.991)" aria-label="meshplex" font-style="normal" font-variant="normal" font-weight="700" font-stretch="normal" font-size="160" font-family="Helvetica LT Std" letter-spacing="0" word-spacing="0" fill="gray" fill-opacity="1" stroke="none" stroke-width="1" stroke-opacity="1"><path id="path841" style="-inkscape-font-specification:'Helvetica LT Std Bold'" d="M471.111 90.955c0-18.72-12.96-28.48-29.6-28.48-13.6 0-19.84 9.44-22.72 13.6-5.76-9.12-11.36-13.6-23.68-13.6-15.04 0-21.28 9.12-24.16 14.72h-.32v-12.48h-21.44v85.12h22.4v-51.84c0-9.28 3.36-16.64 13.92-16.64 13.44 0 13.44 10.08 13.44 17.28v51.2h22.4v-51.04c0-10.08 4-17.44 15.2-17.44 6.56 0 12.16 4.16 12.16 16.8v51.68h22.4z" fill-opacity="1"/><path id="path843" style="-inkscape-font-specification:'Helvetica LT Std Bold'" d="M541.619 124.875c-1.76 6.08-8.16 9.28-14.4 9.28-18.08 0-19.36-14.4-20-20.8h58.4v-4c0-38.88-23.2-46.88-40-46.88-37.28 0-40.8 32.8-40.8 43.04 0 35.04 18.4 46.56 42.4 46.56 14.56 0 31.52-6.72 37.44-27.2zm-33.76-26.08c1.28-11.2 6.88-17.92 17.44-17.92 7.2 0 16 4.16 17.28 17.92z"/><path id="path845" style="-inkscape-font-specification:'Helvetica LT Std Bold'" d="M650.681 90.635c-1.76-24-21.6-28.16-38.24-28.16-26.56 0-34.4 16-34.4 28.48 0 31.84 52.8 21.12 52.8 35.36 0 3.2-2.72 8.8-14.24 8.8-14.08 0-18.56-5.28-18.56-12.48h-23.04c.64 22.72 21.6 29.44 40.96 29.44 13.28 0 37.28-4.48 37.28-29.28 0-31.36-53.28-21.6-53.28-35.04 0-3.68 1.6-8.32 13.76-8.32s14.08 5.76 15.04 11.2z"/><path id="path847" style="-inkscape-font-specification:'Helvetica LT Std Bold'" d="M746.624 90.955c0-18.72-12.96-28.48-29.6-28.48-12.16 0-21.76 6.24-24.64 13.28h-.32v-40.8h-22.4v114.88h22.4v-48.8c0-12.96 7.68-19.68 17.6-19.68 14.24 0 14.56 10.56 14.56 16.8v51.68h22.4z"/><path id="path849" style="-inkscape-font-specification:'Helvetica LT Std Bold'" d="M788.436 109.195c0-13.6 3.68-27.36 19.04-27.36 14.24 0 19.04 12.64 19.04 26.08 0 10.08-4 25.76-18.4 25.76-14.24 0-19.68-11.84-19.68-24.48zm0-44.48h-21.44v118.24h22.4v-44h.32c2.72 4.64 8.32 13.12 24 13.12 25.28 0 35.84-22.4 35.84-45.76 0-29.44-16.64-43.84-35.36-43.84-15.04 0-21.28 7.84-25.44 14.56h-.32z"/><path id="path851" style="-inkscape-font-specification:'Helvetica LT Std Bold'" d="M888.329 34.955h-22.4v114.88h22.4z"/><path id="path853" style="-inkscape-font-specification:'Helvetica LT Std Bold'" d="M959.744 124.875c-1.76 6.08-8.16 9.28-14.4 9.28-18.08 0-19.36-14.4-20-20.8h58.4v-4c0-38.88-23.2-46.88-40-46.88-37.28 0-40.8 32.8-40.8 43.04 0 35.04 18.4 46.56 42.4 46.56 14.56 0 31.52-6.72 37.44-27.2zm-33.76-26.08c1.28-11.2 6.88-17.92 17.44-17.92 7.2 0 16 4.16 17.28 17.92z"/><path id="path855" style="-inkscape-font-specification:'Helvetica LT Std Bold'" d="m1043.426 106.475 28-41.76h-26.4l-14.08 24.8-14.4-24.8h-27.2l27.84 41.76-28.96 43.36h27.04l14.72-25.6 14.72 25.6h27.68z"/></g></g><defs id="defs38"><clipPath id="p9e91403f37" stroke-linecap="butt" stroke-linejoin="round"><path id="rect35" stroke-linecap="butt" stroke-linejoin="round" d="M113.339 41.472h245.642v266.112H113.339z"/></clipPath></defs></svg>