<svg xmlns="http://www.w3.org/2000/svg" height="316.53" version="1.1" viewBox="0 0 237.398 237.398" width="316.53" id="svg40"><defs id="defs4" style="stroke-linecap:butt;stroke-linejoin:round"><style type="text/css" id="style2">*{stroke-linecap:butt;stroke-linejoin:round}</style></defs><g id="figure_1" style="stroke-linecap:butt;stroke-linejoin:round" transform="translate(-117.461 -51.991)"><g id="axes_1" style="stroke-linecap:butt;stroke-linejoin:round"><g id="patch_2" style="stroke-linecap:butt;stroke-linejoin:round"><path clip-path="url(#p9e91403f37)" d="M236.16 286.889a116.204 116.204 0 0 0 82.165-34.034 116.204 116.204 0 0 0 34.034-82.165 116.204 116.204 0 0 0-34.034-82.165A116.204 116.204 0 0 0 236.16 54.49a116.204 116.204 0 0 0-82.165 34.034 116.204 116.204 0 0 0-34.034 82.165 116.204 116.204 0 0 0 34.034 82.165 116.204 116.204 0 0 0 82.165 34.034z" style="fill:none;stroke:#999;stroke-width:5;stroke-linecap:butt;stroke-linejoin:miter" id="path9"/></g><g id="line2d_1" style="stroke-linecap:butt;stroke-linejoin:round"><path clip-path="url(#p9e91403f37)" d="M236.16 170.69v116.199" style="fill:none;stroke:#999;stroke-width:5;stroke-linecap:square;stroke-linejoin:round" id="path12"/></g><g id="line2d_2" style="stroke-linecap:butt;stroke-linejoin:round"><path clip-path="url(#p9e91403f37)" d="m236.16 170.69 87.449-76.518" style="fill:none;stroke:#999;stroke-width:5;stroke-linecap:square;stroke-linejoin:round" id="path15"/></g><g id="line2d_3" style="stroke-linecap:butt;stroke-linejoin:round"><path clip-path="url(#p9e91403f37)" d="m236.16 170.69-108.8-40.8" style="fill:none;stroke:#999;stroke-width:5;stroke-linecap:square;stroke-linejoin:round" id="path18"/></g><g id="line2d_4" style="stroke-linecap:butt;stroke-linejoin:round"><path clip-path="url(#p9e91403f37)" d="M195.22 61.942v163.761" style="fill:none;stroke:#999;stroke-width:5;stroke-linecap:square;stroke-linejoin:round" id="path21"/></g><g id="line2d_5" style="stroke-linecap:butt;stroke-linejoin:round"><path clip-path="url(#p9e91403f37)" d="m133.81 225.703 115.936-101.445" style="fill:none;stroke:#999;stroke-width:5;stroke-linecap:square;stroke-linejoin:round" id="path24"/></g><g id="line2d_6" style="stroke-linecap:butt;stroke-linejoin:round"><path clip-path="url(#p9e91403f37)" d="m338.51 225.703-179.464-67.299" style="fill:none;stroke:#999;stroke-width:5;stroke-linecap:square;stroke-linejoin:round" id="path27"/></g><g id="line2d_7" style="stroke-linecap:butt;stroke-linejoin:round"><path clip-path="url(#p9e91403f37)" d="M133.81 225.703h204.7L195.22 61.943l-61.41 163.76" style="fill:none;stroke:#d62728;stroke-width:5;stroke-linecap:square;stroke-linejoin:round" id="path30"/></g></g></g><defs id="defs38"><clipPath id="p9e91403f37" style="stroke-linecap:butt;stroke-linejoin:round"><path id="rect35" style="stroke-linecap:butt;stroke-linejoin:round" d="M113.339 41.472h245.642v266.112H113.339z"/></clipPath></defs></svg>